<svg width="70" height="69" viewBox="0 0 70 69" fill="none" xmlns="http://www.w3.org/2000/svg">
<g filter="url(#filter0_f_3_1809)">
<circle cx="34.9995" cy="34.5" r="27.4286" stroke="url(#paint0_linear_3_1809)" stroke-width="1.01587"/>
</g>
<g filter="url(#filter1_f_3_1809)">
<circle cx="34.9997" cy="34.5" r="29.4603" stroke="url(#paint1_linear_3_1809)" stroke-width="1.01587"/>
</g>
<g filter="url(#filter2_f_3_1809)">
<circle cx="35" cy="34.5" r="31.4921" stroke="url(#paint2_linear_3_1809)" stroke-width="1.01587"/>
</g>
<circle cx="34.4913" cy="33.992" r="25.3968" fill="#7B1CFF"/>
<path d="M23.5275 24.2787C24.5244 24.2787 25.0229 25.0263 25.0229 26.5217C25.0229 27.4753 24.7628 28.5751 24.2427 29.8213C23.4842 31.6309 22.4547 33.0233 21.1544 33.9985C20.656 34.367 20.1467 34.6487 19.6266 34.8437C19.1064 36.1874 18.4508 37.1681 17.6598 37.7857C18.7434 38.5876 19.529 39.1077 20.0166 39.3461C20.5043 39.5953 20.9756 39.7199 21.4307 39.7199C22.2218 39.7199 22.7419 39.4436 22.9911 38.891C23.067 38.7176 23.1049 38.5551 23.1049 38.4034C23.1049 38.2517 23.0616 38.1216 22.9749 38.0133C22.899 37.9157 22.8069 37.867 22.6986 37.867C22.7311 37.7369 22.8123 37.6719 22.9424 37.6719C23.3108 37.6719 23.5546 37.8778 23.6738 38.2896C23.7171 38.4304 23.7388 38.5659 23.7388 38.6959C23.7388 39.021 23.6142 39.3244 23.365 39.6062C23.0182 40.0179 22.5035 40.2238 21.8208 40.2238C20.9648 40.2238 20.1413 39.9746 19.3502 39.4761C18.906 39.2052 18.5809 38.9939 18.375 38.8422C18.1799 38.6905 17.8278 38.4196 17.3185 38.0295C16.6467 38.4521 15.9044 38.6634 15.0917 38.6634C13.8889 38.6634 13.1087 38.36 12.7511 37.7532C12.6536 37.569 12.6048 37.3794 12.6048 37.1843C12.6048 36.9784 12.6915 36.7671 12.8649 36.5504C13.1358 36.2145 13.5259 36.0465 14.0352 36.0465C14.8479 36.0465 15.861 36.4854 17.0747 37.3631C17.5623 36.8646 18.0012 36.1224 18.3912 35.1363C18.2829 35.1471 18.1258 35.1526 17.9199 35.1526C16.1536 35.1526 14.8587 34.4482 14.0352 33.0395C13.5367 32.1727 13.2875 31.2137 13.2875 30.1626C13.2875 29.805 13.3146 29.442 13.3688 29.0736C13.5638 27.6974 14.0731 26.6463 14.8966 25.9203C15.4601 25.4435 16.0994 25.2051 16.8146 25.2051C17.5298 25.2051 18.0824 25.4381 18.4725 25.9041C18.8626 26.37 19.0685 26.9443 19.0902 27.627C19.0902 27.7245 19.036 27.8058 18.9276 27.8708C18.8193 27.925 18.7109 27.9412 18.6026 27.9195C18.4942 27.887 18.44 27.8166 18.44 27.7082C18.4183 27.0581 18.2883 26.5434 18.0499 26.1641C17.8115 25.774 17.3835 25.579 16.7659 25.579C15.7906 25.579 15.005 26.1154 14.409 27.1881C13.9322 28.0333 13.6939 28.9652 13.6939 29.9838C13.6939 31.8476 14.2952 33.1967 15.498 34.031C16.159 34.497 16.9609 34.73 17.9036 34.73C18.1203 34.73 18.3425 34.7137 18.57 34.6812C18.8193 34.0094 19.0848 33.1317 19.3665 32.0481C19.6482 30.9536 19.8975 30.0055 20.1142 29.2036C20.3417 28.3909 20.6072 27.5836 20.9106 26.7818C21.5391 25.113 22.4114 24.2787 23.5275 24.2787ZM23.3487 24.75C22.5902 24.75 22.0105 25.4815 21.6095 26.9443C21.4145 27.6486 21.2411 28.3747 21.0894 29.1223C20.6451 31.4087 20.2334 33.1154 19.8541 34.2423C21.1869 33.5597 22.2759 32.281 23.1212 30.4064C23.8038 28.911 24.1397 27.5349 24.1289 26.2779C24.0964 25.281 23.8363 24.7717 23.3487 24.75ZM16.7821 37.6394C15.7202 36.8484 14.8045 36.4529 14.0352 36.4529C13.5476 36.4529 13.2387 36.6263 13.1087 36.973C12.9678 37.3089 13.1141 37.6286 13.5476 37.932C13.8726 38.1595 14.3657 38.2733 15.0267 38.2733C15.6877 38.2733 16.2728 38.062 16.7821 37.6394ZM29.5574 37.3956C29.8391 37.3956 30.2347 37.0218 30.7439 36.2741C31.2532 35.5264 31.6921 34.7787 32.0605 34.031L32.6132 32.9095H33.052C32.987 33.0395 32.9003 33.2183 32.7919 33.4459C32.6944 33.6626 32.494 34.0581 32.1906 34.6324C31.8871 35.1959 31.5946 35.6944 31.3128 36.1278C31.0419 36.5612 30.7331 36.9568 30.3864 37.3143C30.0504 37.6611 29.7308 37.8345 29.4274 37.8345C29.124 37.8345 28.8747 37.7424 28.6797 37.5581C28.4413 37.3198 28.3221 36.9026 28.3221 36.3066C28.3221 35.7106 28.425 34.925 28.6309 33.9498H28.5172C27.271 36.5071 26.2362 37.7857 25.4126 37.7857C24.6866 37.7857 24.3236 37.3143 24.3236 36.3716C24.3236 35.6889 24.6162 34.329 25.2013 32.2919C25.3314 31.8259 25.4289 31.4792 25.4939 31.2516C25.5589 31.0132 25.6619 30.894 25.8027 30.894C25.9978 30.894 26.1387 31.0349 26.2253 31.3166C26.2687 31.4358 26.2904 31.5875 26.2904 31.7717C26.2904 31.9451 26.2633 32.1402 26.2091 32.3569C26.1549 32.5628 26.0411 32.9637 25.8678 33.5597C25.4018 35.1634 25.1688 36.2416 25.1688 36.7942C25.1688 37.1518 25.2772 37.3306 25.4939 37.3306C25.7648 37.3306 26.0845 37.0868 26.4529 36.5992C26.843 36.0899 27.1627 35.5968 27.4119 35.1201C27.6611 34.6433 27.8616 34.2532 28.0133 33.9498C28.165 33.6464 28.3167 33.3321 28.4684 33.007C28.6201 32.6711 28.7393 32.3948 28.826 32.1781C28.9235 31.9614 29.0156 31.7555 29.1023 31.5604C29.189 31.3546 29.2323 31.2462 29.2323 31.2354C29.3299 31.0078 29.4382 30.894 29.5574 30.894C29.7525 30.894 29.8933 31.0349 29.98 31.3166C30.0234 31.4467 30.045 31.6038 30.045 31.788C30.045 31.9722 30.0234 32.1672 29.98 32.3731C29.9367 32.5682 29.8662 32.8608 29.7687 33.2508C29.6712 33.6409 29.5953 33.9606 29.5412 34.2098C29.487 34.4591 29.422 34.7625 29.3461 35.1201C29.2377 35.716 29.1836 36.247 29.1836 36.7129C29.1836 37.1681 29.3082 37.3956 29.5574 37.3956ZM32.3779 37.7857C32.0745 37.7857 31.9228 37.5527 31.9228 37.0868C31.9228 36.8376 32.2262 35.0225 32.8331 31.6417C32.8656 31.4141 32.9631 31.3004 33.1256 31.3004C33.3207 31.3004 33.467 31.4412 33.5645 31.723C33.6187 31.8747 33.6458 32.0426 33.6458 32.2268C33.6458 32.4002 33.6241 32.5899 33.5807 32.7957L33.3369 34.031H33.4345C34.388 31.8855 35.3091 30.8128 36.1976 30.8128C36.501 30.8128 36.7394 30.9211 36.9128 31.1378C37.097 31.3546 37.1891 31.6146 37.1891 31.918C37.1891 32.4815 37.1024 33.1858 36.9291 34.031H36.9941C37.9151 32.0264 38.8199 31.0241 39.7085 31.0241C40.0011 31.0241 40.2395 31.1324 40.4237 31.3491C40.6079 31.5659 40.7 31.853 40.7 32.2106C40.7 32.5682 40.5591 33.3267 40.2774 34.4861C40.0065 35.6456 39.871 36.4637 39.871 36.9405C39.871 37.6448 40.0011 37.997 40.2611 37.997C40.2611 38.0729 40.2124 38.1487 40.1148 38.2246C40.0173 38.3004 39.9035 38.3383 39.7735 38.3383C39.145 38.3383 38.8308 37.8453 38.8308 36.8592C38.8308 36.2416 38.9879 35.353 39.3021 34.1936C39.6164 33.0233 39.7735 32.2756 39.7735 31.9505C39.7735 31.6146 39.6651 31.4467 39.4484 31.4467C39.0475 31.4467 38.5761 31.9343 38.0343 32.9095C37.5034 33.8739 37.0753 34.8004 36.7503 35.6889C36.436 36.5775 36.2518 37.1518 36.1976 37.4119C36.1435 37.6611 36.0459 37.7857 35.9051 37.7857C35.6017 37.7857 35.45 37.5527 35.45 37.0868C35.45 36.9134 35.5421 36.3012 35.7263 35.2501C36.0839 33.3213 36.2626 32.1727 36.2626 31.8042C36.2626 31.425 36.1543 31.2354 35.9376 31.2354C35.645 31.2354 35.3037 31.5388 34.9136 32.1456C34.5235 32.7416 34.1713 33.4351 33.8571 34.2261C33.1744 35.8948 32.7735 36.973 32.6543 37.4606C32.6109 37.6773 32.5188 37.7857 32.3779 37.7857ZM44.3808 28.0496C44.63 28.0496 44.7546 28.2175 44.7546 28.5535C44.7546 28.8894 44.5921 29.1603 44.267 29.3661C44.1045 29.4745 43.9636 29.5287 43.8444 29.5287C43.671 29.5287 43.5681 29.4745 43.5356 29.3661L43.5193 29.3174C43.6168 29.3174 43.6873 29.2144 43.7306 29.0086C43.774 28.7918 43.839 28.5805 43.9257 28.3747C44.0232 28.1579 44.1749 28.0496 44.3808 28.0496ZM43.3405 37.3956C43.6223 37.3956 44.0178 37.0218 44.5271 36.2741C45.0364 35.5264 45.4752 34.7787 45.8436 34.031L46.3963 32.9095H46.8351C46.7701 33.0395 46.6834 33.2183 46.5751 33.4459C46.4775 33.6626 46.2771 34.0581 45.9737 34.6324C45.6703 35.1959 45.3777 35.6944 45.096 36.1278C44.8251 36.5612 44.5162 36.9568 44.1695 37.3143C43.8336 37.6611 43.541 37.8345 43.2918 37.8345C42.4899 37.8345 42.089 37.3143 42.089 36.2741C42.089 35.4939 42.3111 34.2261 42.7554 32.4707C42.7987 32.2864 42.8312 32.1456 42.8529 32.0481C42.8854 31.9505 42.9179 31.8259 42.9504 31.6742C42.9829 31.5117 43.0154 31.3654 43.048 31.2354C43.1021 31.0078 43.1997 30.894 43.3405 30.894C43.5356 30.894 43.6764 31.0349 43.7631 31.3166C43.8065 31.4467 43.8281 31.6038 43.8281 31.788C43.8281 31.9722 43.8065 32.1672 43.7631 32.3731C43.7198 32.5682 43.6493 32.8608 43.5518 33.2508C43.4543 33.6409 43.3784 33.9606 43.3243 34.2098C43.2701 34.4591 43.2105 34.7625 43.1455 35.1201C43.0263 35.716 42.9667 36.247 42.9667 36.7129C42.9667 37.1681 43.0913 37.3956 43.3405 37.3956ZM46.128 37.7857C45.8245 37.7857 45.6728 37.5527 45.6728 37.0868C45.6728 36.8376 45.9762 35.0225 46.5831 31.6417C46.6156 31.4141 46.7131 31.3004 46.8756 31.3004C47.0707 31.3004 47.217 31.4412 47.3145 31.723C47.3687 31.8747 47.3958 32.0426 47.3958 32.2268C47.3958 32.4002 47.3741 32.5899 47.3307 32.7957L47.0707 34.0961H47.1682C48.1434 31.9072 49.0753 30.8128 49.9639 30.8128C50.3106 30.8128 50.5761 30.9211 50.7603 31.1378C50.9445 31.3437 51.0367 31.6309 51.0367 31.9993C51.0367 32.3677 50.8904 33.1642 50.5978 34.3886C50.3052 35.6131 50.1589 36.4637 50.1589 36.9405C50.1589 37.6448 50.289 37.997 50.549 37.997C50.549 38.0729 50.5003 38.1487 50.4027 38.2246C50.3052 38.3004 50.1914 38.3383 50.0614 38.3383C49.4329 38.3383 49.1187 37.8453 49.1187 36.8592C49.1187 36.2524 49.2812 35.3368 49.6063 34.1123C49.9422 32.877 50.1102 32.0914 50.1102 31.7555C50.1102 31.4087 49.9747 31.2354 49.7038 31.2354C49.3137 31.2354 48.8424 31.7446 48.2897 32.7632C47.7479 33.7818 47.3091 34.757 46.9732 35.6889C46.6481 36.61 46.4584 37.1897 46.4043 37.4281C46.3609 37.6665 46.2688 37.7857 46.128 37.7857ZM54.7181 28.0496C54.9673 28.0496 55.0919 28.2175 55.0919 28.5535C55.0919 28.8894 54.9294 29.1603 54.6043 29.3661C54.4418 29.4745 54.3009 29.5287 54.1817 29.5287C54.0083 29.5287 53.9054 29.4745 53.8729 29.3661L53.8566 29.3174C53.9541 29.3174 54.0246 29.2144 54.0679 29.0086C54.1113 28.7918 54.1763 28.5805 54.263 28.3747C54.3605 28.1579 54.5122 28.0496 54.7181 28.0496ZM53.6778 37.3956C53.9596 37.3956 54.3551 37.0218 54.8644 36.2741C55.3737 35.5264 55.8125 34.7787 56.1809 34.031L56.7336 32.9095H57.1724C57.1074 33.0395 57.0207 33.2183 56.9124 33.4459C56.8148 33.6626 56.6144 34.0581 56.311 34.6324C56.0076 35.1959 55.715 35.6944 55.4333 36.1278C55.1624 36.5612 54.8535 36.9568 54.5068 37.3143C54.1709 37.6611 53.8783 37.8345 53.6291 37.8345C52.8272 37.8345 52.4263 37.3143 52.4263 36.2741C52.4263 35.4939 52.6484 34.2261 53.0927 32.4707C53.136 32.2864 53.1685 32.1456 53.1902 32.0481C53.2227 31.9505 53.2552 31.8259 53.2877 31.6742C53.3202 31.5117 53.3527 31.3654 53.3853 31.2354C53.4394 31.0078 53.537 30.894 53.6778 30.894C53.8729 30.894 54.0137 31.0349 54.1004 31.3166C54.1438 31.4467 54.1654 31.6038 54.1654 31.788C54.1654 31.9722 54.1438 32.1672 54.1004 32.3731C54.0571 32.5682 53.9867 32.8608 53.8891 33.2508C53.7916 33.6409 53.7158 33.9606 53.6616 34.2098C53.6074 34.4591 53.5478 34.7625 53.4828 35.1201C53.3636 35.716 53.304 36.247 53.304 36.7129C53.304 37.1681 53.4286 37.3956 53.6778 37.3956Z" fill="white"/>
<defs>
<filter id="filter0_f_3_1809" x="5.03124" y="4.53173" width="59.9365" height="59.9365" filterUnits="userSpaceOnUse" color-interpolation-filters="sRGB">
<feFlood flood-opacity="0" result="BackgroundImageFix"/>
<feBlend mode="normal" in="SourceGraphic" in2="BackgroundImageFix" result="shape"/>
<feGaussianBlur stdDeviation="1.01587" result="effect1_foregroundBlur_3_1809"/>
</filter>
<filter id="filter1_f_3_1809" x="2.99975" y="2.49999" width="64" height="64" filterUnits="userSpaceOnUse" color-interpolation-filters="sRGB">
<feFlood flood-opacity="0" result="BackgroundImageFix"/>
<feBlend mode="normal" in="SourceGraphic" in2="BackgroundImageFix" result="shape"/>
<feGaussianBlur stdDeviation="1.01587" result="effect1_foregroundBlur_3_1809"/>
</filter>
<filter id="filter2_f_3_1809" x="0.968254" y="0.468254" width="68.0635" height="68.0635" filterUnits="userSpaceOnUse" color-interpolation-filters="sRGB">
<feFlood flood-opacity="0" result="BackgroundImageFix"/>
<feBlend mode="normal" in="SourceGraphic" in2="BackgroundImageFix" result="shape"/>
<feGaussianBlur stdDeviation="1.01587" result="effect1_foregroundBlur_3_1809"/>
</filter>
<linearGradient id="paint0_linear_3_1809" x1="34.9995" y1="6.56347" x2="34.9995" y2="62.4365" gradientUnits="userSpaceOnUse">
<stop stop-color="#FFA133"/>
<stop offset="1" stop-color="#7B1CFF"/>
</linearGradient>
<linearGradient id="paint1_linear_3_1809" x1="34.9997" y1="4.53174" x2="34.9997" y2="64.4682" gradientUnits="userSpaceOnUse">
<stop stop-color="#FEA233"/>
<stop offset="1" stop-color="#B47EFF"/>
</linearGradient>
<linearGradient id="paint2_linear_3_1809" x1="35" y1="2.5" x2="35" y2="66.5" gradientUnits="userSpaceOnUse">
<stop stop-color="#FEA233"/>
<stop offset="1" stop-color="#B47EFF"/>
</linearGradient>
</defs>
</svg>
