<svg width="66" height="25" viewBox="0 0 66 25" fill="none" xmlns="http://www.w3.org/2000/svg">
<g filter="url(#filter0_i_3_839)">
<rect x="0.662933" y="0.142334" width="65.0974" height="24.2584" rx="3.31461" fill="#7B1CFF" fill-opacity="0.01"/>
<path d="M12.3457 15.7715V9.34316H14.7563C15.2501 9.34316 15.6645 9.42895 15.9993 9.60054C16.3362 9.77213 16.5904 10.0128 16.762 10.3225C16.9357 10.6301 17.0225 10.989 17.0225 11.3991C17.0225 11.8113 16.9346 12.1692 16.7589 12.4726C16.5852 12.7739 16.3288 13.0072 15.9899 13.1725C15.6509 13.3358 15.2344 13.4174 14.7406 13.4174H13.0237V12.4506H14.5837C14.8724 12.4506 15.1089 12.4108 15.293 12.3313C15.4772 12.2497 15.6132 12.1315 15.7011 11.9766C15.7911 11.8197 15.836 11.6272 15.836 11.3991C15.836 11.171 15.7911 10.9764 15.7011 10.8153C15.6111 10.652 15.474 10.5286 15.2899 10.4449C15.1057 10.3591 14.8682 10.3162 14.5774 10.3162H13.5102V15.7715H12.3457ZM15.6666 12.8586L17.2579 15.7715H15.9585L14.3953 12.8586H15.6666ZM20.1096 15.8656C19.6262 15.8656 19.2087 15.7652 18.8572 15.5643C18.5077 15.3613 18.2388 15.0747 18.0505 14.7043C17.8622 14.3318 17.768 13.8934 17.768 13.3891C17.768 12.8932 17.8622 12.4579 18.0505 12.0834C18.2409 11.7067 18.5067 11.4137 18.8478 11.2045C19.1888 10.9931 19.5896 10.8875 20.0499 10.8875C20.3471 10.8875 20.6275 10.9356 20.8911 11.0318C21.1569 11.126 21.3913 11.2725 21.5942 11.4713C21.7993 11.6701 21.9604 11.9233 22.0776 12.2309C22.1948 12.5364 22.2534 12.9005 22.2534 13.3232V13.6716H18.3016V12.9057H21.1642C21.1621 12.6881 21.115 12.4945 21.023 12.325C20.9309 12.1535 20.8022 12.0185 20.6369 11.9201C20.4737 11.8218 20.2833 11.7726 20.0656 11.7726C19.8334 11.7726 19.6293 11.8291 19.4536 11.9421C19.2778 12.053 19.1407 12.1995 19.0424 12.3815C18.9461 12.5615 18.8969 12.7593 18.8948 12.9748V13.6434C18.8948 13.9238 18.9461 14.1644 19.0486 14.3653C19.1512 14.5641 19.2945 14.7168 19.4787 14.8236C19.6628 14.9282 19.8783 14.9805 20.1253 14.9805C20.2906 14.9805 20.4402 14.9575 20.5741 14.9114C20.708 14.8633 20.8242 14.7932 20.9225 14.7011C21.0209 14.6091 21.0952 14.495 21.1454 14.359L22.2063 14.4783C22.1393 14.7587 22.0117 15.0035 21.8234 15.2128C21.6371 15.4199 21.3986 15.5811 21.1077 15.6962C20.8169 15.8092 20.4841 15.8656 20.1096 15.8656ZM24.602 15.8688C24.2965 15.8688 24.0213 15.8144 23.7765 15.7056C23.5338 15.5947 23.3413 15.4314 23.199 15.2159C23.0588 15.0004 22.9887 14.7346 22.9887 14.4186C22.9887 14.1466 23.0389 13.9217 23.1393 13.7438C23.2398 13.5659 23.3768 13.4236 23.5505 13.3169C23.7242 13.2102 23.9199 13.1296 24.1375 13.0752C24.3572 13.0187 24.5842 12.9779 24.8186 12.9528C25.1011 12.9235 25.3302 12.8974 25.506 12.8743C25.6818 12.8492 25.8094 12.8116 25.8889 12.7613C25.9706 12.709 26.0114 12.6285 26.0114 12.5197V12.5008C26.0114 12.2644 25.9413 12.0813 25.8011 11.9515C25.6609 11.8218 25.4589 11.7569 25.1953 11.7569C24.917 11.7569 24.6962 11.8176 24.533 11.939C24.3718 12.0603 24.263 12.2037 24.2065 12.369L23.1456 12.2183C23.2293 11.9254 23.3674 11.6805 23.5599 11.4838C23.7524 11.285 23.9879 11.1365 24.2662 11.0381C24.5445 10.9377 24.8521 10.8875 25.189 10.8875C25.4213 10.8875 25.6525 10.9147 25.8827 10.9691C26.1128 11.0235 26.3231 11.1135 26.5136 11.239C26.704 11.3625 26.8568 11.5309 26.9718 11.7444C27.089 11.9578 27.1476 12.2246 27.1476 12.5448V15.7715H26.0553V15.1092H26.0176C25.9486 15.2431 25.8513 15.3687 25.7257 15.4859C25.6023 15.6009 25.4464 15.6941 25.258 15.7652C25.0718 15.8343 24.8531 15.8688 24.602 15.8688ZM24.8971 15.0339C25.1252 15.0339 25.3229 14.9889 25.4903 14.8989C25.6577 14.8068 25.7864 14.6854 25.8764 14.5348C25.9685 14.3841 26.0145 14.2199 26.0145 14.042V13.4739C25.9789 13.5032 25.9182 13.5304 25.8324 13.5555C25.7487 13.5806 25.6546 13.6026 25.55 13.6214C25.4453 13.6402 25.3417 13.657 25.2392 13.6716C25.1367 13.6863 25.0477 13.6988 24.9724 13.7093C24.8029 13.7323 24.6512 13.77 24.5173 13.8223C24.3834 13.8746 24.2777 13.9478 24.2003 14.042C24.1228 14.1341 24.0841 14.2533 24.0841 14.3998C24.0841 14.6091 24.1605 14.7671 24.3133 14.8738C24.466 14.9805 24.6606 15.0339 24.8971 15.0339ZM30.0793 15.8562C29.7005 15.8562 29.3615 15.7589 29.0623 15.5643C28.7631 15.3697 28.5266 15.0872 28.3529 14.7168C28.1792 14.3465 28.0924 13.8966 28.0924 13.3671C28.0924 12.8314 28.1803 12.3795 28.3561 12.0112C28.5339 11.6408 28.7735 11.3614 29.0749 11.1731C29.3762 10.9827 29.712 10.8875 30.0824 10.8875C30.3649 10.8875 30.5972 10.9356 30.7792 11.0318C30.9613 11.126 31.1057 11.2401 31.2124 11.374C31.3191 11.5058 31.4018 11.6303 31.4604 11.7475H31.5075V9.34316H32.6468V15.7715H31.5294V15.0119H31.4604C31.4018 15.1291 31.317 15.2536 31.2061 15.3854C31.0952 15.5151 30.9487 15.6261 30.7667 15.7181C30.5846 15.8102 30.3555 15.8562 30.0793 15.8562ZM30.3963 14.924C30.637 14.924 30.842 14.8591 31.0115 14.7294C31.181 14.5976 31.3097 14.4145 31.3976 14.1801C31.4855 13.9457 31.5294 13.6727 31.5294 13.3609C31.5294 13.0491 31.4855 12.7781 31.3976 12.5479C31.3118 12.3177 31.1842 12.1388 31.0147 12.0112C30.8473 11.8835 30.6411 11.8197 30.3963 11.8197C30.1431 11.8197 29.9318 11.8856 29.7623 12.0174C29.5928 12.1493 29.4651 12.3313 29.3793 12.5636C29.2935 12.7959 29.2506 13.0616 29.2506 13.3609C29.2506 13.6622 29.2935 13.9311 29.3793 14.1675C29.4672 14.4019 29.5959 14.5871 29.7654 14.7231C29.937 14.857 30.1473 14.924 30.3963 14.924ZM41.383 9.34316V15.7715H40.3472L37.3182 11.3928H37.2649V15.7715H36.1003V9.34316H37.1424L40.1683 13.725H40.2248V9.34316H41.383ZM44.7047 15.8656C44.2338 15.8656 43.8258 15.7621 43.4805 15.5549C43.1353 15.3477 42.8674 15.0579 42.677 14.6854C42.4887 14.313 42.3945 13.8777 42.3945 13.3797C42.3945 12.8817 42.4887 12.4454 42.677 12.0708C42.8674 11.6962 43.1353 11.4054 43.4805 11.1982C43.8258 10.991 44.2338 10.8875 44.7047 10.8875C45.1755 10.8875 45.5835 10.991 45.9288 11.1982C46.2741 11.4054 46.5409 11.6962 46.7292 12.0708C46.9196 12.4454 47.0149 12.8817 47.0149 13.3797C47.0149 13.8777 46.9196 14.313 46.7292 14.6854C46.5409 15.0579 46.2741 15.3477 45.9288 15.5549C45.5835 15.7621 45.1755 15.8656 44.7047 15.8656ZM44.7109 14.9554C44.9662 14.9554 45.1797 14.8853 45.3513 14.7451C45.5229 14.6028 45.6505 14.4124 45.7342 14.1738C45.82 13.9353 45.8629 13.6695 45.8629 13.3766C45.8629 13.0815 45.82 12.8147 45.7342 12.5762C45.6505 12.3355 45.5229 12.144 45.3513 12.0017C45.1797 11.8595 44.9662 11.7883 44.7109 11.7883C44.4494 11.7883 44.2318 11.8595 44.0581 12.0017C43.8865 12.144 43.7578 12.3355 43.672 12.5762C43.5883 12.8147 43.5464 13.0815 43.5464 13.3766C43.5464 13.6695 43.5883 13.9353 43.672 14.1738C43.7578 14.4124 43.8865 14.6028 44.0581 14.7451C44.2318 14.8853 44.4494 14.9554 44.7109 14.9554ZM48.8362 15.7715L47.4739 10.9502H48.6321L49.4796 14.3402H49.5236L50.3899 10.9502H51.5356L52.4019 14.3213H52.449L53.2839 10.9502H54.4453L53.0799 15.7715H51.8965L50.9925 12.5134H50.9266L50.0226 15.7715H48.8362Z" fill="white"/>
</g>
<defs>
<filter id="filter0_i_3_839" x="0.662933" y="0.142334" width="65.0974" height="24.2585" filterUnits="userSpaceOnUse" color-interpolation-filters="sRGB">
<feFlood flood-opacity="0" result="BackgroundImageFix"/>
<feBlend mode="normal" in="SourceGraphic" in2="BackgroundImageFix" result="shape"/>
<feColorMatrix in="SourceAlpha" type="matrix" values="0 0 0 0 0 0 0 0 0 0 0 0 0 0 0 0 0 0 127 0" result="hardAlpha"/>
<feOffset/>
<feGaussianBlur stdDeviation="6.62921"/>
<feComposite in2="hardAlpha" operator="arithmetic" k2="-1" k3="1"/>
<feColorMatrix type="matrix" values="0 0 0 0 0.482353 0 0 0 0 0.109804 0 0 0 0 1 0 0 0 1 0"/>
<feBlend mode="normal" in2="shape" result="effect1_innerShadow_3_839"/>
</filter>
</defs>
</svg>
