<svg width="98" height="28" viewBox="0 0 98 28" fill="none" xmlns="http://www.w3.org/2000/svg">
<g filter="url(#filter0_i_453_874)">
<path d="M0 6.5C0 3.18629 2.68629 0.5 6 0.5H92C95.3137 0.5 98 3.18629 98 6.5V21.5C98 24.8137 95.3137 27.5 92 27.5H6C2.68629 27.5 0 24.8137 0 21.5V6.5Z" fill="#7B1CFF" fill-opacity="0.21"/>
<path d="M36.9716 11.0625C36.9186 10.5663 36.6951 10.1799 36.3011 9.90341C35.911 9.62689 35.4034 9.48864 34.7784 9.48864C34.339 9.48864 33.9621 9.55492 33.6477 9.6875C33.3333 9.82008 33.0928 10 32.9261 10.2273C32.7595 10.4545 32.6742 10.714 32.6705 11.0057C32.6705 11.2481 32.7254 11.4583 32.8352 11.6364C32.9489 11.8144 33.1023 11.9659 33.2955 12.0909C33.4886 12.2121 33.7027 12.3144 33.9375 12.3977C34.1723 12.4811 34.4091 12.5511 34.6477 12.608L35.7386 12.8807C36.178 12.983 36.6004 13.1212 37.0057 13.2955C37.4148 13.4697 37.7803 13.6894 38.1023 13.9545C38.428 14.2197 38.6856 14.5398 38.875 14.9148C39.0644 15.2898 39.1591 15.7292 39.1591 16.233C39.1591 16.9148 38.9848 17.5152 38.6364 18.0341C38.2879 18.5492 37.7841 18.9527 37.125 19.2443C36.4697 19.5322 35.6761 19.6761 34.7443 19.6761C33.839 19.6761 33.053 19.536 32.3864 19.2557C31.7235 18.9754 31.2045 18.5663 30.8295 18.0284C30.4583 17.4905 30.2576 16.8352 30.2273 16.0625H32.3011C32.3314 16.4678 32.4564 16.8049 32.6761 17.0739C32.8958 17.3428 33.1818 17.5436 33.5341 17.6761C33.8902 17.8087 34.2879 17.875 34.7273 17.875C35.1856 17.875 35.5871 17.8068 35.9318 17.6705C36.2803 17.5303 36.553 17.3371 36.75 17.0909C36.947 16.8409 37.0473 16.5492 37.0511 16.2159C37.0473 15.9129 36.9583 15.6629 36.7841 15.4659C36.6098 15.2652 36.3655 15.0985 36.0511 14.9659C35.7405 14.8295 35.3769 14.7083 34.9602 14.6023L33.6364 14.2614C32.678 14.0152 31.9205 13.642 31.3636 13.142C30.8106 12.6383 30.5341 11.9697 30.5341 11.1364C30.5341 10.4508 30.7197 9.85038 31.0909 9.33523C31.4659 8.82008 31.9754 8.42045 32.6193 8.13636C33.2633 7.84848 33.9924 7.70455 34.8068 7.70455C35.6326 7.70455 36.3561 7.84848 36.9773 8.13636C37.6023 8.42045 38.0928 8.81629 38.4489 9.32386C38.8049 9.82765 38.9886 10.4072 39 11.0625H36.9716ZM45.3054 10.7727V12.3636H40.2884V10.7727H45.3054ZM41.527 8.68182H43.5838V16.875C43.5838 17.1515 43.6255 17.3636 43.7088 17.5114C43.7959 17.6553 43.9096 17.7538 44.0497 17.8068C44.1899 17.8598 44.3452 17.8864 44.5156 17.8864C44.6444 17.8864 44.7618 17.8769 44.8679 17.858C44.9777 17.839 45.0611 17.822 45.1179 17.8068L45.4645 19.4148C45.3546 19.4527 45.1974 19.4943 44.9929 19.5398C44.7921 19.5852 44.5459 19.6117 44.2543 19.6193C43.7391 19.6345 43.2751 19.5568 42.8622 19.3864C42.4493 19.2121 42.1217 18.9432 41.8793 18.5795C41.6406 18.2159 41.5232 17.7614 41.527 17.2159V8.68182ZM49.5369 19.6761C48.9839 19.6761 48.4858 19.5777 48.0426 19.3807C47.6032 19.1799 47.2547 18.8845 46.9972 18.4943C46.7434 18.1042 46.6165 17.6231 46.6165 17.0511C46.6165 16.5587 46.7074 16.1515 46.8892 15.8295C47.071 15.5076 47.3191 15.25 47.6335 15.0568C47.9479 14.8636 48.3021 14.7178 48.696 14.6193C49.0938 14.517 49.5047 14.4432 49.929 14.3977C50.4403 14.3447 50.8551 14.2973 51.1733 14.2557C51.4915 14.2102 51.7225 14.142 51.8665 14.0511C52.0142 13.9564 52.0881 13.8106 52.0881 13.6136V13.5795C52.0881 13.1515 51.9612 12.8201 51.7074 12.5852C51.4536 12.3504 51.0881 12.233 50.6108 12.233C50.107 12.233 49.7074 12.3428 49.4119 12.5625C49.1203 12.7822 48.9233 13.0417 48.821 13.3409L46.9006 13.0682C47.0521 12.5379 47.3021 12.0947 47.6506 11.7386C47.9991 11.3788 48.4252 11.1098 48.929 10.9318C49.4328 10.75 49.9896 10.6591 50.5994 10.6591C51.0199 10.6591 51.4384 10.7083 51.8551 10.8068C52.2718 10.9053 52.6525 11.0682 52.9972 11.2955C53.3419 11.5189 53.6184 11.8239 53.8267 12.2102C54.0388 12.5966 54.1449 13.0795 54.1449 13.6591V19.5H52.1676V18.3011H52.0994C51.9744 18.5436 51.7983 18.7708 51.571 18.983C51.3475 19.1913 51.0653 19.3598 50.7244 19.4886C50.3873 19.6136 49.9915 19.6761 49.5369 19.6761ZM50.071 18.1648C50.4839 18.1648 50.8419 18.0833 51.1449 17.9205C51.4479 17.7538 51.6809 17.5341 51.8438 17.2614C52.0104 16.9886 52.0938 16.6913 52.0938 16.3693V15.3409C52.0294 15.3939 51.9195 15.4432 51.7642 15.4886C51.6127 15.5341 51.4422 15.5739 51.2528 15.608C51.0634 15.642 50.8759 15.6723 50.6903 15.6989C50.5047 15.7254 50.3438 15.7481 50.2074 15.767C49.9006 15.8087 49.6259 15.8769 49.3835 15.9716C49.1411 16.0663 48.9498 16.1989 48.8097 16.3693C48.6695 16.536 48.5994 16.7519 48.5994 17.017C48.5994 17.3958 48.7377 17.6818 49.0142 17.875C49.2907 18.0682 49.643 18.1648 50.071 18.1648ZM56.2131 19.5V10.7727H58.2074V12.2273H58.2983C58.4574 11.7235 58.7301 11.3352 59.1165 11.0625C59.5066 10.786 59.9517 10.6477 60.4517 10.6477C60.5653 10.6477 60.6922 10.6534 60.8324 10.6648C60.9763 10.6723 61.0956 10.6856 61.1903 10.7045V12.5966C61.1032 12.5663 60.965 12.5398 60.7756 12.517C60.59 12.4905 60.41 12.4773 60.2358 12.4773C59.8608 12.4773 59.5237 12.5587 59.2244 12.7216C58.929 12.8807 58.696 13.1023 58.5256 13.3864C58.3551 13.6705 58.2699 13.9981 58.2699 14.3693V19.5H56.2131ZM67.3835 10.7727V12.3636H62.3665V10.7727H67.3835ZM63.6051 8.68182H65.6619V16.875C65.6619 17.1515 65.7036 17.3636 65.7869 17.5114C65.8741 17.6553 65.9877 17.7538 66.1278 17.8068C66.268 17.8598 66.4233 17.8864 66.5938 17.8864C66.7225 17.8864 66.84 17.8769 66.946 17.858C67.0559 17.839 67.1392 17.822 67.196 17.8068L67.5426 19.4148C67.4328 19.4527 67.2756 19.4943 67.071 19.5398C66.8703 19.5852 66.6241 19.6117 66.3324 19.6193C65.8172 19.6345 65.3532 19.5568 64.9403 19.3864C64.5275 19.2121 64.1998 18.9432 63.9574 18.5795C63.7188 18.2159 63.6013 17.7614 63.6051 17.2159V8.68182Z" fill="white"/>
</g>
<defs>
<filter id="filter0_i_453_874" x="0" y="0.5" width="98" height="28" filterUnits="userSpaceOnUse" color-interpolation-filters="sRGB">
<feFlood flood-opacity="0" result="BackgroundImageFix"/>
<feBlend mode="normal" in="SourceGraphic" in2="BackgroundImageFix" result="shape"/>
<feColorMatrix in="SourceAlpha" type="matrix" values="0 0 0 0 0 0 0 0 0 0 0 0 0 0 0 0 0 0 127 0" result="hardAlpha"/>
<feOffset dy="1"/>
<feGaussianBlur stdDeviation="5"/>
<feComposite in2="hardAlpha" operator="arithmetic" k2="-1" k3="1"/>
<feColorMatrix type="matrix" values="0 0 0 0 0.482353 0 0 0 0 0.109804 0 0 0 0 1 0 0 0 1 0"/>
<feBlend mode="normal" in2="shape" result="effect1_innerShadow_453_874"/>
</filter>
</defs>
</svg>
