<svg width="193" height="39" viewBox="0 0 193 39" fill="none" xmlns="http://www.w3.org/2000/svg">
<g filter="url(#filter0_i_3_800)">
<path d="M0 6C0 2.68629 2.68629 0 6 0H187C190.314 0 193 2.68629 193 6V33C193 36.3137 190.314 39 187 39H5.99999C2.68629 39 0 36.3137 0 33V6Z" fill="#FFA133" fill-opacity="0.2"/>
<path d="M36.2614 13.3636H38.0227V21.017C38.0227 21.8314 37.8314 22.553 37.4489 23.1818C37.0663 23.8068 36.5284 24.2992 35.8352 24.6591C35.142 25.0152 34.3295 25.1932 33.3977 25.1932C32.4697 25.1932 31.6591 25.0152 30.9659 24.6591C30.2727 24.2992 29.7348 23.8068 29.3523 23.1818C28.9697 22.553 28.7784 21.8314 28.7784 21.017V13.3636H30.5341V20.875C30.5341 21.4015 30.6496 21.8693 30.8807 22.2784C31.1155 22.6875 31.447 23.0095 31.875 23.2443C32.303 23.4754 32.8106 23.5909 33.3977 23.5909C33.9886 23.5909 34.4981 23.4754 34.9261 23.2443C35.358 23.0095 35.6875 22.6875 35.9148 22.2784C36.1458 21.8693 36.2614 21.4015 36.2614 20.875V13.3636ZM40.4389 28.2727V16.2727H42.098V17.6875H42.2401C42.3385 17.5057 42.4806 17.2955 42.6662 17.0568C42.8518 16.8182 43.1094 16.6098 43.4389 16.4318C43.7685 16.25 44.2041 16.1591 44.7457 16.1591C45.4503 16.1591 46.0791 16.3371 46.6321 16.6932C47.1851 17.0492 47.6188 17.5625 47.9332 18.233C48.2514 18.9034 48.4105 19.7102 48.4105 20.6534C48.4105 21.5966 48.2533 22.4053 47.9389 23.0795C47.6245 23.75 47.1927 24.267 46.6435 24.6307C46.0942 24.9905 45.4673 25.1705 44.7628 25.1705C44.2325 25.1705 43.7988 25.0814 43.4616 24.9034C43.1283 24.7254 42.867 24.517 42.6776 24.2784C42.4882 24.0398 42.3423 23.8277 42.2401 23.642H42.1378V28.2727H40.4389ZM42.1037 20.6364C42.1037 21.25 42.1927 21.7879 42.3707 22.25C42.5488 22.7121 42.8063 23.0739 43.1435 23.3352C43.4806 23.5928 43.8935 23.7216 44.3821 23.7216C44.8897 23.7216 45.3139 23.5871 45.6548 23.3182C45.9957 23.0455 46.2533 22.6761 46.4276 22.2102C46.6056 21.7443 46.6946 21.2197 46.6946 20.6364C46.6946 20.0606 46.6075 19.5436 46.4332 19.0852C46.2628 18.6269 46.0052 18.2652 45.6605 18C45.3196 17.7348 44.8935 17.6023 44.3821 17.6023C43.8897 17.6023 43.473 17.7292 43.1321 17.983C42.795 18.2367 42.5393 18.5909 42.3651 19.0455C42.1908 19.5 42.1037 20.0303 42.1037 20.6364ZM53.581 25.1705C52.8764 25.1705 52.2476 24.9905 51.6946 24.6307C51.1454 24.267 50.7135 23.75 50.3991 23.0795C50.0885 22.4053 49.9332 21.5966 49.9332 20.6534C49.9332 19.7102 50.0904 18.9034 50.4048 18.233C50.723 17.5625 51.1586 17.0492 51.7116 16.6932C52.2647 16.3371 52.8916 16.1591 53.5923 16.1591C54.134 16.1591 54.5696 16.25 54.8991 16.4318C55.2325 16.6098 55.4901 16.8182 55.6719 17.0568C55.8575 17.2955 56.0014 17.5057 56.1037 17.6875H56.206V13.3636H57.9048V25H56.2457V23.642H56.1037C56.0014 23.8277 55.8537 24.0398 55.6605 24.2784C55.4711 24.517 55.2098 24.7254 54.8764 24.9034C54.5431 25.0814 54.1113 25.1705 53.581 25.1705ZM53.956 23.7216C54.4446 23.7216 54.8575 23.5928 55.1946 23.3352C55.5355 23.0739 55.7931 22.7121 55.9673 22.25C56.1454 21.7879 56.2344 21.25 56.2344 20.6364C56.2344 20.0303 56.1473 19.5 55.973 19.0455C55.7988 18.5909 55.5431 18.2367 55.206 17.983C54.8688 17.7292 54.4522 17.6023 53.956 17.6023C53.4446 17.6023 53.0185 17.7348 52.6776 18C52.3366 18.2652 52.0791 18.6269 51.9048 19.0852C51.7344 19.5436 51.6491 20.0606 51.6491 20.6364C51.6491 21.2197 51.7363 21.7443 51.9105 22.2102C52.0848 22.6761 52.3423 23.0455 52.6832 23.3182C53.0279 23.5871 53.4522 23.7216 53.956 23.7216ZM62.8693 25.1932C62.3163 25.1932 61.8163 25.0909 61.3693 24.8864C60.9223 24.678 60.5682 24.3769 60.3068 23.983C60.0492 23.589 59.9205 23.1061 59.9205 22.5341C59.9205 22.0417 60.0152 21.6364 60.2045 21.3182C60.3939 21 60.6496 20.7481 60.9716 20.5625C61.2936 20.3769 61.6534 20.2367 62.0511 20.142C62.4489 20.0473 62.8542 19.9754 63.267 19.9261C63.7898 19.8655 64.214 19.8163 64.5398 19.7784C64.8655 19.7367 65.1023 19.6705 65.25 19.5795C65.3977 19.4886 65.4716 19.3409 65.4716 19.1364V19.0966C65.4716 18.6004 65.3314 18.2159 65.0511 17.9432C64.7746 17.6705 64.3617 17.5341 63.8125 17.5341C63.2405 17.5341 62.7898 17.661 62.4602 17.9148C62.1345 18.1648 61.9091 18.4432 61.7841 18.75L60.1875 18.3864C60.3769 17.8561 60.6534 17.428 61.017 17.1023C61.3845 16.7727 61.8068 16.5341 62.2841 16.3864C62.7614 16.2348 63.2633 16.1591 63.7898 16.1591C64.1383 16.1591 64.5076 16.2008 64.8977 16.2841C65.2917 16.3636 65.6591 16.5114 66 16.7273C66.3447 16.9432 66.6269 17.2519 66.8466 17.6534C67.0663 18.0511 67.1761 18.5682 67.1761 19.2045V25H65.517V23.8068H65.4489C65.339 24.0265 65.1742 24.2424 64.9545 24.4545C64.7348 24.6667 64.4527 24.8428 64.108 24.983C63.7633 25.1231 63.3504 25.1932 62.8693 25.1932ZM63.2386 23.8295C63.7083 23.8295 64.1098 23.7367 64.4432 23.5511C64.7803 23.3655 65.036 23.1231 65.2102 22.8239C65.3883 22.5208 65.4773 22.197 65.4773 21.8523V20.7273C65.4167 20.7879 65.2992 20.8447 65.125 20.8977C64.9545 20.947 64.7595 20.9905 64.5398 21.0284C64.3201 21.0625 64.1061 21.0947 63.8977 21.125C63.6894 21.1515 63.5152 21.1742 63.375 21.1932C63.0455 21.2348 62.7443 21.3049 62.4716 21.4034C62.2027 21.5019 61.9867 21.6439 61.8239 21.8295C61.6648 22.0114 61.5852 22.2538 61.5852 22.5568C61.5852 22.9773 61.7405 23.2955 62.0511 23.5114C62.3617 23.7235 62.7576 23.8295 63.2386 23.8295ZM73.5128 16.2727V17.6364H68.7457V16.2727H73.5128ZM70.0241 14.1818H71.723V22.4375C71.723 22.767 71.7723 23.0152 71.8707 23.1818C71.9692 23.3447 72.0961 23.4564 72.2514 23.517C72.4105 23.5739 72.5829 23.6023 72.7685 23.6023C72.9048 23.6023 73.0241 23.5928 73.1264 23.5739C73.2287 23.5549 73.3082 23.5398 73.3651 23.5284L73.6719 24.9318C73.5734 24.9697 73.4332 25.0076 73.2514 25.0455C73.0696 25.0871 72.8423 25.1098 72.5696 25.1136C72.1226 25.1212 71.706 25.0417 71.3196 24.875C70.9332 24.7083 70.6207 24.4508 70.3821 24.1023C70.1435 23.7538 70.0241 23.3163 70.0241 22.7898V14.1818ZM79.0597 25.1761C78.1998 25.1761 77.4593 24.9924 76.8381 24.625C76.2206 24.2538 75.7434 23.733 75.4062 23.0625C75.0729 22.3883 74.9062 21.5985 74.9062 20.6932C74.9062 19.7992 75.0729 19.0114 75.4062 18.3295C75.7434 17.6477 76.2131 17.1155 76.8153 16.733C77.4214 16.3504 78.1297 16.1591 78.9403 16.1591C79.4328 16.1591 79.91 16.2405 80.3722 16.4034C80.8343 16.5663 81.2491 16.822 81.6165 17.1705C81.9839 17.5189 82.2737 17.9716 82.4858 18.5284C82.6979 19.0814 82.804 19.7538 82.804 20.5455V21.1477H75.8665V19.875H81.1392C81.1392 19.428 81.0483 19.0322 80.8665 18.6875C80.6847 18.339 80.429 18.0644 80.0994 17.8636C79.7737 17.6629 79.3911 17.5625 78.9517 17.5625C78.4744 17.5625 78.0578 17.6799 77.7017 17.9148C77.3494 18.1458 77.0767 18.4489 76.8835 18.8239C76.6941 19.1951 76.5994 19.5985 76.5994 20.0341V21.0284C76.5994 21.6117 76.7017 22.108 76.9062 22.517C77.1146 22.9261 77.4044 23.2386 77.7756 23.4545C78.1468 23.6667 78.5805 23.7727 79.0767 23.7727C79.3987 23.7727 79.6922 23.7273 79.9574 23.6364C80.2225 23.5417 80.4517 23.4015 80.6449 23.2159C80.8381 23.0303 80.9858 22.8011 81.0881 22.5284L82.696 22.8182C82.5672 23.2917 82.3362 23.7064 82.0028 24.0625C81.6733 24.4148 81.2585 24.6894 80.7585 24.8864C80.2623 25.0795 79.696 25.1761 79.0597 25.1761ZM89.9972 28.2727C89.7434 28.2727 89.5123 28.2519 89.304 28.2102C89.0956 28.1723 88.9403 28.1307 88.8381 28.0852L89.2472 26.6932C89.5578 26.7765 89.8343 26.8125 90.0767 26.8011C90.3191 26.7898 90.5331 26.6989 90.7188 26.5284C90.9081 26.358 91.0748 26.0795 91.2188 25.6932L91.429 25.1136L88.2358 16.2727H90.054L92.2642 23.0455H92.3551L94.5653 16.2727H96.3892L92.7926 26.1648C92.6259 26.6193 92.4138 27.0038 92.1562 27.3182C91.8987 27.6364 91.5919 27.875 91.2358 28.0341C90.8797 28.1932 90.4669 28.2727 89.9972 28.2727ZM101.365 25.1761C100.547 25.1761 99.8329 24.9886 99.223 24.6136C98.6132 24.2386 98.1397 23.714 97.8026 23.0398C97.4654 22.3655 97.2969 21.5777 97.2969 20.6761C97.2969 19.7708 97.4654 18.9792 97.8026 18.3011C98.1397 17.6231 98.6132 17.0966 99.223 16.7216C99.8329 16.3466 100.547 16.1591 101.365 16.1591C102.183 16.1591 102.897 16.3466 103.507 16.7216C104.117 17.0966 104.59 17.6231 104.928 18.3011C105.265 18.9792 105.433 19.7708 105.433 20.6761C105.433 21.5777 105.265 22.3655 104.928 23.0398C104.59 23.714 104.117 24.2386 103.507 24.6136C102.897 24.9886 102.183 25.1761 101.365 25.1761ZM101.371 23.75C101.901 23.75 102.34 23.6098 102.689 23.3295C103.037 23.0492 103.295 22.6761 103.462 22.2102C103.632 21.7443 103.717 21.2311 103.717 20.6705C103.717 20.1136 103.632 19.6023 103.462 19.1364C103.295 18.6667 103.037 18.2898 102.689 18.0057C102.34 17.7216 101.901 17.5795 101.371 17.5795C100.837 17.5795 100.393 17.7216 100.041 18.0057C99.6927 18.2898 99.4332 18.6667 99.2628 19.1364C99.0961 19.6023 99.0128 20.1136 99.0128 20.6705C99.0128 21.2311 99.0961 21.7443 99.2628 22.2102C99.4332 22.6761 99.6927 23.0492 100.041 23.3295C100.393 23.6098 100.837 23.75 101.371 23.75ZM112.858 21.3807V16.2727H114.562V25H112.892V23.4886H112.801C112.6 23.9545 112.278 24.3428 111.835 24.6534C111.396 24.9602 110.848 25.1136 110.193 25.1136C109.633 25.1136 109.136 24.9905 108.705 24.7443C108.277 24.4943 107.939 24.125 107.693 23.6364C107.451 23.1477 107.33 22.5436 107.33 21.8239V16.2727H109.028V21.6193C109.028 22.214 109.193 22.6875 109.523 23.0398C109.852 23.392 110.28 23.5682 110.807 23.5682C111.125 23.5682 111.441 23.4886 111.756 23.3295C112.074 23.1705 112.337 22.9299 112.545 22.608C112.758 22.286 112.862 21.8769 112.858 21.3807ZM116.845 25V16.2727H118.487V17.6591H118.578C118.737 17.1894 119.018 16.8201 119.419 16.5511C119.824 16.2784 120.283 16.142 120.794 16.142C120.9 16.142 121.025 16.1458 121.169 16.1534C121.317 16.161 121.432 16.1705 121.516 16.1818V17.8068C121.447 17.7879 121.326 17.767 121.152 17.7443C120.978 17.7178 120.804 17.7045 120.629 17.7045C120.228 17.7045 119.87 17.7898 119.555 17.9602C119.245 18.1269 118.999 18.3598 118.817 18.6591C118.635 18.9545 118.544 19.2917 118.544 19.6705V25H116.845ZM127.357 25V13.3636H131.618C132.444 13.3636 133.127 13.5 133.669 13.7727C134.211 14.0417 134.616 14.4072 134.885 14.8693C135.154 15.3277 135.288 15.8447 135.288 16.4205C135.288 16.9053 135.199 17.3144 135.021 17.6477C134.843 17.9773 134.605 18.2424 134.305 18.4432C134.01 18.6402 133.684 18.7841 133.328 18.875V18.9886C133.714 19.0076 134.091 19.1326 134.459 19.3636C134.83 19.5909 135.137 19.9148 135.379 20.3352C135.622 20.7557 135.743 21.267 135.743 21.8693C135.743 22.464 135.603 22.9981 135.322 23.4716C135.046 23.9413 134.618 24.3144 134.038 24.5909C133.459 24.8636 132.718 25 131.817 25H127.357ZM129.112 23.4943H131.646C132.487 23.4943 133.089 23.3314 133.453 23.0057C133.817 22.6799 133.999 22.2727 133.999 21.7841C133.999 21.4167 133.906 21.0795 133.72 20.7727C133.535 20.4659 133.269 20.2216 132.925 20.0398C132.584 19.858 132.179 19.767 131.709 19.767H129.112V23.4943ZM129.112 18.3977H131.464C131.858 18.3977 132.213 18.322 132.527 18.1705C132.845 18.0189 133.097 17.8068 133.283 17.5341C133.472 17.2576 133.567 16.9318 133.567 16.5568C133.567 16.0758 133.398 15.6723 133.061 15.3466C132.724 15.0208 132.207 14.858 131.51 14.858H129.112V18.3977ZM141.365 25.1761C140.547 25.1761 139.833 24.9886 139.223 24.6136C138.613 24.2386 138.14 23.714 137.803 23.0398C137.465 22.3655 137.297 21.5777 137.297 20.6761C137.297 19.7708 137.465 18.9792 137.803 18.3011C138.14 17.6231 138.613 17.0966 139.223 16.7216C139.833 16.3466 140.547 16.1591 141.365 16.1591C142.183 16.1591 142.897 16.3466 143.507 16.7216C144.117 17.0966 144.59 17.6231 144.928 18.3011C145.265 18.9792 145.433 19.7708 145.433 20.6761C145.433 21.5777 145.265 22.3655 144.928 23.0398C144.59 23.714 144.117 24.2386 143.507 24.6136C142.897 24.9886 142.183 25.1761 141.365 25.1761ZM141.371 23.75C141.901 23.75 142.34 23.6098 142.689 23.3295C143.037 23.0492 143.295 22.6761 143.462 22.2102C143.632 21.7443 143.717 21.2311 143.717 20.6705C143.717 20.1136 143.632 19.6023 143.462 19.1364C143.295 18.6667 143.037 18.2898 142.689 18.0057C142.34 17.7216 141.901 17.5795 141.371 17.5795C140.837 17.5795 140.393 17.7216 140.041 18.0057C139.693 18.2898 139.433 18.6667 139.263 19.1364C139.096 19.6023 139.013 20.1136 139.013 20.6705C139.013 21.2311 139.096 21.7443 139.263 22.2102C139.433 22.6761 139.693 23.0492 140.041 23.3295C140.393 23.6098 140.837 23.75 141.371 23.75ZM151.006 25.1761C150.188 25.1761 149.473 24.9886 148.864 24.6136C148.254 24.2386 147.78 23.714 147.443 23.0398C147.106 22.3655 146.938 21.5777 146.938 20.6761C146.938 19.7708 147.106 18.9792 147.443 18.3011C147.78 17.6231 148.254 17.0966 148.864 16.7216C149.473 16.3466 150.188 16.1591 151.006 16.1591C151.824 16.1591 152.538 16.3466 153.148 16.7216C153.758 17.0966 154.231 17.6231 154.568 18.3011C154.905 18.9792 155.074 19.7708 155.074 20.6761C155.074 21.5777 154.905 22.3655 154.568 23.0398C154.231 23.714 153.758 24.2386 153.148 24.6136C152.538 24.9886 151.824 25.1761 151.006 25.1761ZM151.011 23.75C151.542 23.75 151.981 23.6098 152.33 23.3295C152.678 23.0492 152.936 22.6761 153.102 22.2102C153.273 21.7443 153.358 21.2311 153.358 20.6705C153.358 20.1136 153.273 19.6023 153.102 19.1364C152.936 18.6667 152.678 18.2898 152.33 18.0057C151.981 17.7216 151.542 17.5795 151.011 17.5795C150.477 17.5795 150.034 17.7216 149.682 18.0057C149.333 18.2898 149.074 18.6667 148.903 19.1364C148.737 19.6023 148.653 20.1136 148.653 20.6705C148.653 21.2311 148.737 21.7443 148.903 22.2102C149.074 22.6761 149.333 23.0492 149.682 23.3295C150.034 23.6098 150.477 23.75 151.011 23.75ZM158.533 22.0398L158.521 19.9659H158.817L162.294 16.2727H164.328L160.362 20.4773H160.095L158.533 22.0398ZM156.97 25V13.3636H158.669V25H156.97ZM162.482 25L159.357 20.8523L160.527 19.6648L164.567 25H162.482Z" fill="white"/>
</g>
<defs>
<filter id="filter0_i_3_800" x="0" y="0" width="193" height="39" filterUnits="userSpaceOnUse" color-interpolation-filters="sRGB">
<feFlood flood-opacity="0" result="BackgroundImageFix"/>
<feBlend mode="normal" in="SourceGraphic" in2="BackgroundImageFix" result="shape"/>
<feColorMatrix in="SourceAlpha" type="matrix" values="0 0 0 0 0 0 0 0 0 0 0 0 0 0 0 0 0 0 127 0" result="hardAlpha"/>
<feOffset/>
<feGaussianBlur stdDeviation="6.5"/>
<feComposite in2="hardAlpha" operator="arithmetic" k2="-1" k3="1"/>
<feColorMatrix type="matrix" values="0 0 0 0 1 0 0 0 0 0.603922 0 0 0 0 0.423529 0 0 0 1 0"/>
<feBlend mode="normal" in2="shape" result="effect1_innerShadow_3_800"/>
</filter>
</defs>
</svg>
