<svg width="193" height="39" viewBox="0 0 193 39" fill="none" xmlns="http://www.w3.org/2000/svg">
<g filter="url(#filter0_i_3_798)">
<rect width="193" height="39" rx="6" fill="#7B1CFF" fill-opacity="0.2"/>
<path d="M36.7614 13.3636H38.5227V21.017C38.5227 21.8314 38.3314 22.553 37.9489 23.1818C37.5663 23.8068 37.0284 24.2992 36.3352 24.6591C35.642 25.0152 34.8295 25.1932 33.8977 25.1932C32.9697 25.1932 32.1591 25.0152 31.4659 24.6591C30.7727 24.2992 30.2348 23.8068 29.8523 23.1818C29.4697 22.553 29.2784 21.8314 29.2784 21.017V13.3636H31.0341V20.875C31.0341 21.4015 31.1496 21.8693 31.3807 22.2784C31.6155 22.6875 31.947 23.0095 32.375 23.2443C32.803 23.4754 33.3106 23.5909 33.8977 23.5909C34.4886 23.5909 34.9981 23.4754 35.4261 23.2443C35.858 23.0095 36.1875 22.6875 36.4148 22.2784C36.6458 21.8693 36.7614 21.4015 36.7614 20.875V13.3636ZM40.9389 28.2727V16.2727H42.598V17.6875H42.7401C42.8385 17.5057 42.9806 17.2955 43.1662 17.0568C43.3518 16.8182 43.6094 16.6098 43.9389 16.4318C44.2685 16.25 44.7041 16.1591 45.2457 16.1591C45.9503 16.1591 46.5791 16.3371 47.1321 16.6932C47.6851 17.0492 48.1188 17.5625 48.4332 18.233C48.7514 18.9034 48.9105 19.7102 48.9105 20.6534C48.9105 21.5966 48.7533 22.4053 48.4389 23.0795C48.1245 23.75 47.6927 24.267 47.1435 24.6307C46.5942 24.9905 45.9673 25.1705 45.2628 25.1705C44.7325 25.1705 44.2988 25.0814 43.9616 24.9034C43.6283 24.7254 43.367 24.517 43.1776 24.2784C42.9882 24.0398 42.8423 23.8277 42.7401 23.642H42.6378V28.2727H40.9389ZM42.6037 20.6364C42.6037 21.25 42.6927 21.7879 42.8707 22.25C43.0488 22.7121 43.3063 23.0739 43.6435 23.3352C43.9806 23.5928 44.3935 23.7216 44.8821 23.7216C45.3897 23.7216 45.8139 23.5871 46.1548 23.3182C46.4957 23.0455 46.7533 22.6761 46.9276 22.2102C47.1056 21.7443 47.1946 21.2197 47.1946 20.6364C47.1946 20.0606 47.1075 19.5436 46.9332 19.0852C46.7628 18.6269 46.5052 18.2652 46.1605 18C45.8196 17.7348 45.3935 17.6023 44.8821 17.6023C44.3897 17.6023 43.973 17.7292 43.6321 17.983C43.295 18.2367 43.0393 18.5909 42.8651 19.0455C42.6908 19.5 42.6037 20.0303 42.6037 20.6364ZM52.5128 13.3636V25H50.8139V13.3636H52.5128ZM58.4744 25.1761C57.6563 25.1761 56.9422 24.9886 56.3324 24.6136C55.7225 24.2386 55.2491 23.714 54.9119 23.0398C54.5748 22.3655 54.4062 21.5777 54.4062 20.6761C54.4062 19.7708 54.5748 18.9792 54.9119 18.3011C55.2491 17.6231 55.7225 17.0966 56.3324 16.7216C56.9422 16.3466 57.6563 16.1591 58.4744 16.1591C59.2926 16.1591 60.0066 16.3466 60.6165 16.7216C61.2263 17.0966 61.6998 17.6231 62.0369 18.3011C62.3741 18.9792 62.5426 19.7708 62.5426 20.6761C62.5426 21.5777 62.3741 22.3655 62.0369 23.0398C61.6998 23.714 61.2263 24.2386 60.6165 24.6136C60.0066 24.9886 59.2926 25.1761 58.4744 25.1761ZM58.4801 23.75C59.0104 23.75 59.4498 23.6098 59.7983 23.3295C60.1468 23.0492 60.4044 22.6761 60.571 22.2102C60.7415 21.7443 60.8267 21.2311 60.8267 20.6705C60.8267 20.1136 60.7415 19.6023 60.571 19.1364C60.4044 18.6667 60.1468 18.2898 59.7983 18.0057C59.4498 17.7216 59.0104 17.5795 58.4801 17.5795C57.946 17.5795 57.5028 17.7216 57.1506 18.0057C56.8021 18.2898 56.5426 18.6667 56.3722 19.1364C56.2055 19.6023 56.1222 20.1136 56.1222 20.6705C56.1222 21.2311 56.2055 21.7443 56.3722 22.2102C56.5426 22.6761 56.8021 23.0492 57.1506 23.3295C57.5028 23.6098 57.946 23.75 58.4801 23.75ZM66.9787 25.1932C66.4257 25.1932 65.9257 25.0909 65.4787 24.8864C65.0317 24.678 64.6776 24.3769 64.4162 23.983C64.1586 23.589 64.0298 23.1061 64.0298 22.5341C64.0298 22.0417 64.1245 21.6364 64.3139 21.3182C64.5033 21 64.759 20.7481 65.081 20.5625C65.4029 20.3769 65.7628 20.2367 66.1605 20.142C66.5582 20.0473 66.9635 19.9754 67.3764 19.9261C67.8991 19.8655 68.3234 19.8163 68.6491 19.7784C68.9749 19.7367 69.2116 19.6705 69.3594 19.5795C69.5071 19.4886 69.581 19.3409 69.581 19.1364V19.0966C69.581 18.6004 69.4408 18.2159 69.1605 17.9432C68.884 17.6705 68.4711 17.5341 67.9219 17.5341C67.3499 17.5341 66.8991 17.661 66.5696 17.9148C66.2438 18.1648 66.0185 18.4432 65.8935 18.75L64.2969 18.3864C64.4863 17.8561 64.7628 17.428 65.1264 17.1023C65.4938 16.7727 65.9162 16.5341 66.3935 16.3864C66.8707 16.2348 67.3726 16.1591 67.8991 16.1591C68.2476 16.1591 68.617 16.2008 69.0071 16.2841C69.401 16.3636 69.7685 16.5114 70.1094 16.7273C70.4541 16.9432 70.7363 17.2519 70.956 17.6534C71.1757 18.0511 71.2855 18.5682 71.2855 19.2045V25H69.6264V23.8068H69.5582C69.4484 24.0265 69.2836 24.2424 69.0639 24.4545C68.8442 24.6667 68.562 24.8428 68.2173 24.983C67.8726 25.1231 67.4598 25.1932 66.9787 25.1932ZM67.348 23.8295C67.8177 23.8295 68.2192 23.7367 68.5526 23.5511C68.8897 23.3655 69.1454 23.1231 69.3196 22.8239C69.4976 22.5208 69.5866 22.197 69.5866 21.8523V20.7273C69.526 20.7879 69.4086 20.8447 69.2344 20.8977C69.0639 20.947 68.8688 20.9905 68.6491 21.0284C68.4295 21.0625 68.2154 21.0947 68.0071 21.125C67.7988 21.1515 67.6245 21.1742 67.4844 21.1932C67.1548 21.2348 66.8537 21.3049 66.581 21.4034C66.312 21.5019 66.0961 21.6439 65.9332 21.8295C65.7741 22.0114 65.6946 22.2538 65.6946 22.5568C65.6946 22.9773 65.8499 23.2955 66.1605 23.5114C66.4711 23.7235 66.867 23.8295 67.348 23.8295ZM76.8153 25.1705C76.1108 25.1705 75.482 24.9905 74.929 24.6307C74.3797 24.267 73.9479 23.75 73.6335 23.0795C73.3229 22.4053 73.1676 21.5966 73.1676 20.6534C73.1676 19.7102 73.3248 18.9034 73.6392 18.233C73.9574 17.5625 74.393 17.0492 74.946 16.6932C75.4991 16.3371 76.1259 16.1591 76.8267 16.1591C77.3684 16.1591 77.804 16.25 78.1335 16.4318C78.4669 16.6098 78.7244 16.8182 78.9062 17.0568C79.0919 17.2955 79.2358 17.5057 79.3381 17.6875H79.4403V13.3636H81.1392V25H79.4801V23.642H79.3381C79.2358 23.8277 79.0881 24.0398 78.8949 24.2784C78.7055 24.517 78.4441 24.7254 78.1108 24.9034C77.7775 25.0814 77.3456 25.1705 76.8153 25.1705ZM77.1903 23.7216C77.679 23.7216 78.0919 23.5928 78.429 23.3352C78.7699 23.0739 79.0275 22.7121 79.2017 22.25C79.3797 21.7879 79.4688 21.25 79.4688 20.6364C79.4688 20.0303 79.3816 19.5 79.2074 19.0455C79.0331 18.5909 78.7775 18.2367 78.4403 17.983C78.1032 17.7292 77.6866 17.6023 77.1903 17.6023C76.679 17.6023 76.2528 17.7348 75.9119 18C75.571 18.2652 75.3134 18.6269 75.1392 19.0852C74.9688 19.5436 74.8835 20.0606 74.8835 20.6364C74.8835 21.2197 74.9706 21.7443 75.1449 22.2102C75.3191 22.6761 75.5767 23.0455 75.9176 23.3182C76.2623 23.5871 76.6866 23.7216 77.1903 23.7216ZM87.0369 13.3636H89.0312L92.071 18.6534H92.196L95.2358 13.3636H97.2301L93.0085 20.4318V25H91.2585V20.4318L87.0369 13.3636ZM100.99 25.1761C100.172 25.1761 99.4579 24.9886 98.848 24.6136C98.2382 24.2386 97.7647 23.714 97.4276 23.0398C97.0904 22.3655 96.9219 21.5777 96.9219 20.6761C96.9219 19.7708 97.0904 18.9792 97.4276 18.3011C97.7647 17.6231 98.2382 17.0966 98.848 16.7216C99.4579 16.3466 100.172 16.1591 100.99 16.1591C101.808 16.1591 102.522 16.3466 103.132 16.7216C103.742 17.0966 104.215 17.6231 104.553 18.3011C104.89 18.9792 105.058 19.7708 105.058 20.6761C105.058 21.5777 104.89 22.3655 104.553 23.0398C104.215 23.714 103.742 24.2386 103.132 24.6136C102.522 24.9886 101.808 25.1761 100.99 25.1761ZM100.996 23.75C101.526 23.75 101.965 23.6098 102.314 23.3295C102.662 23.0492 102.92 22.6761 103.087 22.2102C103.257 21.7443 103.342 21.2311 103.342 20.6705C103.342 20.1136 103.257 19.6023 103.087 19.1364C102.92 18.6667 102.662 18.2898 102.314 18.0057C101.965 17.7216 101.526 17.5795 100.996 17.5795C100.462 17.5795 100.018 17.7216 99.6662 18.0057C99.3177 18.2898 99.0582 18.6667 98.8878 19.1364C98.7211 19.6023 98.6378 20.1136 98.6378 20.6705C98.6378 21.2311 98.7211 21.7443 98.8878 22.2102C99.0582 22.6761 99.3177 23.0492 99.6662 23.3295C100.018 23.6098 100.462 23.75 100.996 23.75ZM112.483 21.3807V16.2727H114.188V25H112.517V23.4886H112.426C112.225 23.9545 111.903 24.3428 111.46 24.6534C111.021 24.9602 110.473 25.1136 109.818 25.1136C109.258 25.1136 108.761 24.9905 108.33 24.7443C107.902 24.4943 107.564 24.125 107.318 23.6364C107.076 23.1477 106.955 22.5436 106.955 21.8239V16.2727H108.653V21.6193C108.653 22.214 108.818 22.6875 109.148 23.0398C109.477 23.392 109.905 23.5682 110.432 23.5682C110.75 23.5682 111.066 23.4886 111.381 23.3295C111.699 23.1705 111.962 22.9299 112.17 22.608C112.383 22.286 112.487 21.8769 112.483 21.3807ZM116.47 25V16.2727H118.112V17.6591H118.203C118.362 17.1894 118.643 16.8201 119.044 16.5511C119.449 16.2784 119.908 16.142 120.419 16.142C120.525 16.142 120.65 16.1458 120.794 16.1534C120.942 16.161 121.057 16.1705 121.141 16.1818V17.8068C121.072 17.7879 120.951 17.767 120.777 17.7443C120.603 17.7178 120.429 17.7045 120.254 17.7045C119.853 17.7045 119.495 17.7898 119.18 17.9602C118.87 18.1269 118.624 18.3598 118.442 18.6591C118.26 18.9545 118.169 19.2917 118.169 19.6705V25H116.47ZM126.982 25V13.3636H131.243C132.069 13.3636 132.752 13.5 133.294 13.7727C133.836 14.0417 134.241 14.4072 134.51 14.8693C134.779 15.3277 134.913 15.8447 134.913 16.4205C134.913 16.9053 134.824 17.3144 134.646 17.6477C134.468 17.9773 134.23 18.2424 133.93 18.4432C133.635 18.6402 133.309 18.7841 132.953 18.875V18.9886C133.339 19.0076 133.716 19.1326 134.084 19.3636C134.455 19.5909 134.762 19.9148 135.004 20.3352C135.247 20.7557 135.368 21.267 135.368 21.8693C135.368 22.464 135.228 22.9981 134.947 23.4716C134.671 23.9413 134.243 24.3144 133.663 24.5909C133.084 24.8636 132.343 25 131.442 25H126.982ZM128.737 23.4943H131.271C132.112 23.4943 132.714 23.3314 133.078 23.0057C133.442 22.6799 133.624 22.2727 133.624 21.7841C133.624 21.4167 133.531 21.0795 133.345 20.7727C133.16 20.4659 132.894 20.2216 132.55 20.0398C132.209 19.858 131.804 19.767 131.334 19.767H128.737V23.4943ZM128.737 18.3977H131.089C131.483 18.3977 131.838 18.322 132.152 18.1705C132.47 18.0189 132.722 17.8068 132.908 17.5341C133.097 17.2576 133.192 16.9318 133.192 16.5568C133.192 16.0758 133.023 15.6723 132.686 15.3466C132.349 15.0208 131.832 14.858 131.135 14.858H128.737V18.3977ZM140.99 25.1761C140.172 25.1761 139.458 24.9886 138.848 24.6136C138.238 24.2386 137.765 23.714 137.428 23.0398C137.09 22.3655 136.922 21.5777 136.922 20.6761C136.922 19.7708 137.09 18.9792 137.428 18.3011C137.765 17.6231 138.238 17.0966 138.848 16.7216C139.458 16.3466 140.172 16.1591 140.99 16.1591C141.808 16.1591 142.522 16.3466 143.132 16.7216C143.742 17.0966 144.215 17.6231 144.553 18.3011C144.89 18.9792 145.058 19.7708 145.058 20.6761C145.058 21.5777 144.89 22.3655 144.553 23.0398C144.215 23.714 143.742 24.2386 143.132 24.6136C142.522 24.9886 141.808 25.1761 140.99 25.1761ZM140.996 23.75C141.526 23.75 141.965 23.6098 142.314 23.3295C142.662 23.0492 142.92 22.6761 143.087 22.2102C143.257 21.7443 143.342 21.2311 143.342 20.6705C143.342 20.1136 143.257 19.6023 143.087 19.1364C142.92 18.6667 142.662 18.2898 142.314 18.0057C141.965 17.7216 141.526 17.5795 140.996 17.5795C140.462 17.5795 140.018 17.7216 139.666 18.0057C139.318 18.2898 139.058 18.6667 138.888 19.1364C138.721 19.6023 138.638 20.1136 138.638 20.6705C138.638 21.2311 138.721 21.7443 138.888 22.2102C139.058 22.6761 139.318 23.0492 139.666 23.3295C140.018 23.6098 140.462 23.75 140.996 23.75ZM150.631 25.1761C149.813 25.1761 149.098 24.9886 148.489 24.6136C147.879 24.2386 147.405 23.714 147.068 23.0398C146.731 22.3655 146.562 21.5777 146.562 20.6761C146.562 19.7708 146.731 18.9792 147.068 18.3011C147.405 17.6231 147.879 17.0966 148.489 16.7216C149.098 16.3466 149.813 16.1591 150.631 16.1591C151.449 16.1591 152.163 16.3466 152.773 16.7216C153.383 17.0966 153.856 17.6231 154.193 18.3011C154.53 18.9792 154.699 19.7708 154.699 20.6761C154.699 21.5777 154.53 22.3655 154.193 23.0398C153.856 23.714 153.383 24.2386 152.773 24.6136C152.163 24.9886 151.449 25.1761 150.631 25.1761ZM150.636 23.75C151.167 23.75 151.606 23.6098 151.955 23.3295C152.303 23.0492 152.561 22.6761 152.727 22.2102C152.898 21.7443 152.983 21.2311 152.983 20.6705C152.983 20.1136 152.898 19.6023 152.727 19.1364C152.561 18.6667 152.303 18.2898 151.955 18.0057C151.606 17.7216 151.167 17.5795 150.636 17.5795C150.102 17.5795 149.659 17.7216 149.307 18.0057C148.958 18.2898 148.699 18.6667 148.528 19.1364C148.362 19.6023 148.278 20.1136 148.278 20.6705C148.278 21.2311 148.362 21.7443 148.528 22.2102C148.699 22.6761 148.958 23.0492 149.307 23.3295C149.659 23.6098 150.102 23.75 150.636 23.75ZM158.158 22.0398L158.146 19.9659H158.442L161.919 16.2727H163.953L159.987 20.4773H159.72L158.158 22.0398ZM156.595 25V13.3636H158.294V25H156.595ZM162.107 25L158.982 20.8523L160.152 19.6648L164.192 25H162.107Z" fill="white"/>
</g>
<defs>
<filter id="filter0_i_3_798" x="0" y="0" width="193" height="39" filterUnits="userSpaceOnUse" color-interpolation-filters="sRGB">
<feFlood flood-opacity="0" result="BackgroundImageFix"/>
<feBlend mode="normal" in="SourceGraphic" in2="BackgroundImageFix" result="shape"/>
<feColorMatrix in="SourceAlpha" type="matrix" values="0 0 0 0 0 0 0 0 0 0 0 0 0 0 0 0 0 0 127 0" result="hardAlpha"/>
<feOffset/>
<feGaussianBlur stdDeviation="6.5"/>
<feComposite in2="hardAlpha" operator="arithmetic" k2="-1" k3="1"/>
<feColorMatrix type="matrix" values="0 0 0 0 0.482353 0 0 0 0 0.109804 0 0 0 0 1 0 0 0 1 0"/>
<feBlend mode="normal" in2="shape" result="effect1_innerShadow_3_798"/>
</filter>
</defs>
</svg>
